<?xml version="1.0" encoding="UTF-8"?>
<svg id="Capa_2" data-name="Capa 2" xmlns="http://www.w3.org/2000/svg" viewBox="0 0 33 33">
  <defs>
    <style>
      .cls-1, .cls-2 {
        fill: none;
      }

      .cls-1, .cls-2, .cls-3 {
        stroke: #000;
        stroke-miterlimit: 10;
      }

      .cls-2 {
        stroke-linecap: round;
      }

      .cls-3 {
        fill: #fff;
      }
    </style>
  </defs>
  <g id="Capa_1-2" data-name="Capa 1">
    <g>
      <circle class="cls-3" cx="16.5" cy="16.5" r="16"/>
      <g>
        <path class="cls-2" d="m9.59,20.81c-.25-2.14.79-4.36,3.78-4.59"/>
        <path class="cls-2" d="m23.4,20.81c.25-2.14-.79-4.36-3.78-4.59"/>
        <line class="cls-1" x1="26.83" y1="15.01" x2="13.35" y2="16.23"/>
        <line class="cls-1" x1="6.18" y1="15.01" x2="19.66" y2="16.23"/>
        <path class="cls-1" d="m14.52,16.01c0,2.15-1.92,3.96-4.28,3.85-2.05-.1-3.75-1.85-4.03-3.97-.34-2.54,1.68-3.82,4.04-3.69,2.88.16,4.27,1.66,4.27,3.81Z"/>
        <path class="cls-1" d="m18.47,16.01c0,2.15,1.92,3.96,4.28,3.85,2.05-.1,3.75-1.85,4.03-3.97.34-2.54-1.68-3.82-4.04-3.69-2.88.16-4.27,1.66-4.27,3.81Z"/>
        <path class="cls-1" d="m18.48,15.89c0-.68-.38-1.23-.85-1.23h-2.25c-.47,0-.85.55-.85,1.23"/>
      </g>
    </g>
  </g>
</svg>